<?xml version="1.0" ?><svg data-name="Layer 1" id="Layer_1" viewBox="0 0 100 100" xmlns="http://www.w3.org/2000/svg"><title/><path d="M50,5A45,45,0,1,0,95,50,45.00058,45.00058,0,0,0,50,5Zm0,88A43.00024,43.00024,0,1,1,80.40552,80.40552,42.86137,42.86137,0,0,1,50,93Z"/><path d="M60.40442,29.00006a2.54639,2.54639,0,0,0-1.372.40466L30.21655,47.76355a2.66377,2.66377,0,0,0,0,4.47284L59.03247,70.59534a2.54693,2.54693,0,0,0,1.37195.40454,2.58845,2.58845,0,0,0,1.81012-.7475A2.64086,2.64086,0,0,0,63,68.35889V31.64111a2.6409,2.6409,0,0,0-.78546-1.89349A2.58851,2.58851,0,0,0,60.40442,29.00006ZM61,68.35889a.634.634,0,0,1-.18781.46746.591.591,0,0,1-.40777.17353.54112.54112,0,0,1-.29718-.09125l-28.816-18.35895a.66422.66422,0,0,1,0-1.09942L60.10718,31.09143a.54123.54123,0,0,1,.29724-.09137.59111.59111,0,0,1,.40777.17359A.63378.63378,0,0,1,61,31.64111Z"/></svg>